<svg xmlns="http://www.w3.org/2000/svg" width="99.692" height="57.179" viewBox="0 0 99.692 57.179">
  <g id="Artwork_7" data-name="Artwork 7" transform="translate(0)">
    <g id="Group_10511" data-name="Group 10511" transform="translate(0 0)">
      <path id="Path_47573" data-name="Path 47573" d="M-776.431-164.569l-5.163,6.761-5.128-6.761h-2.372v15.653h2.189v-12.342l5.311,7.013,5.345-7.013v12.342h2.189v-15.653Z" transform="translate(789.094 205.911)" fill="#fff"/>
      <rect id="Rectangle_3550" data-name="Rectangle 3550" width="2.188" height="15.653" transform="translate(18.315 41.343)" fill="#fff"/>
      <g id="Group_10510" data-name="Group 10510" transform="translate(2.355)">
        <path id="Path_47574" data-name="Path 47574" d="M-624.888-156.916h3.5a3.8,3.8,0,0,0,2.79-.793,2.877,2.877,0,0,0,.75-2.06q0-2.876-3.632-2.876h-3.4Zm-2.188,8V-164.57h5.776a6.35,6.35,0,0,1,4.13,1.228,4.264,4.264,0,0,1,1.507,3.5,4.44,4.44,0,0,1-1,3.054,5.116,5.116,0,0,1-2.5,1.556l4.16,6.31h-2.578l-3.781-5.958h-3.519v5.958Z" transform="translate(648.505 205.912)" fill="#fff"/>
        <path id="Path_47575" data-name="Path 47575" d="M-530.077-161.842l2.487,6.5h-4.974Zm-1.054-2.727-6.245,15.653h2.349l1.684-4.389h6.532l1.684,4.389h2.349L-529-164.569Z" transform="translate(571.973 205.911)" fill="#fff"/>
        <path id="Path_47576" data-name="Path 47576" d="M-415.492-164.569v12.457l-8.754-12.457h-2.487v15.653h2.189v-12.537l8.823,12.537h2.418v-15.653Z" transform="translate(477.574 205.911)" fill="#fff"/>
        <path id="Path_47577" data-name="Path 47577" d="M-318.122-164.569v2.039h5.248v13.614h2.189v-13.614h5.282v-2.039Z" transform="translate(384.906 205.911)" fill="#fff"/>
        <rect id="Rectangle_3551" data-name="Rectangle 3551" width="2.188" height="15.653" transform="translate(82.019 41.343)" fill="#fff"/>
        <path id="Path_47578" data-name="Path 47578" d="M-181.659-161.409a4.18,4.18,0,0,1,1.336-3.125,5.774,5.774,0,0,1,4.135-1.287,8.986,8.986,0,0,1,4.034.953v2.128a7.144,7.144,0,0,0-3.771-1.041q-3.545,0-3.545,2.372a1.375,1.375,0,0,0,.623,1.111,4.919,4.919,0,0,0,1.538.758q.914.283,2,.735a19.437,19.437,0,0,1,2.007.96,4.25,4.25,0,0,1,1.537,1.492,4.2,4.2,0,0,1,.62,2.291,3.7,3.7,0,0,1-1.5,3.133,6.778,6.778,0,0,1-4.151,1.128,10.561,10.561,0,0,1-4.658-1.121v-2.25a8.466,8.466,0,0,0,4.463,1.33q3.65,0,3.66-2.221a2.308,2.308,0,0,0-.617-1.62,3.554,3.554,0,0,0-1.533-.971l-2.013-.683q-1.1-.381-2.012-.781a3.746,3.746,0,0,1-1.534-1.244,3.361,3.361,0,0,1-.621-2.048" transform="translate(268.476 206.98)" fill="#fff"/>
        <path id="Path_47579" data-name="Path 47579" d="M-747.68-436.755c5.8,1.613,9.893,5.091,14.132,8.573,3.754-2.06,7.47-4.2,11.182-6.207q1.912-1.036,3.813-1.953c-1.277-1.1-2.557-2.2-3.9-3.214a31.76,31.76,0,0,0-17.185-6.532,45.232,45.232,0,0,0-33.416,12.13c7.619-4.57,16.927-5.145,25.372-2.8" transform="translate(773.052 446.191)" fill="#fff"/>
        <path id="Path_47580" data-name="Path 47580" d="M-455.427-353.268a27.1,27.1,0,0,1-5.918-3.643c-4.045,2.2-8.045,4.511-12.039,6.675q-1.387.752-2.77,1.44a40.463,40.463,0,0,0,3.388,2.244c15.055,8.845,35.8,3.985,48.009-7.616-9.269,5.588-20.966,5.077-30.67.9" transform="translate(519.739 370.017)" fill="#fff"/>
        <path id="Path_47581" data-name="Path 47581" d="M-652.013-436.68c-14.426-.7-26.944,2.258-39.872,9.263-14.048,7.612-28.14,17.016-44.2,17.242,14.425.7,26.945-2.258,39.872-9.262,14.048-7.613,28.141-17.017,44.2-17.243" transform="translate(741.515 438.162)" fill="#ef2369"/>
      </g>
    </g>
  </g>
</svg>
